# xmcd
#
# Track frame offsets:
#	150
#	20002
#	42672
#	65087
#	85915
#	108400
#	130485
#	147812
#	169477
#	186175
#
# Disc length: 2738 seconds
#
# Revision: 1
# Processed by: cddbd v1.5.1PL0 Copyright (c) Steve Scherf et al.
# Submitted via: CDex 1.50Beta5
#
DISCID=980ab00a
DTITLE=KinKi Kids - KinKi Kidsシングル・ベスト・セレクション
DYEAR=1900
DGENRE=
TTITLE0=硝子の少年
TTITLE1=愛されるより愛したい
TTITLE2=ジェットコースター・ロマンス
TTITLE3=全部だきしめて
TTITLE4=青の時代
TTITLE5=Happy Happy Greeting
TTITLE6=やめないで、PURE
TTITLE7=フラワー
TTITLE8=雨のMelody
TTITLE9=好きになってく愛してく
EXTD=
EXTT0=
EXTT1=
EXTT2=
EXTT3=
EXTT4=
EXTT5=
EXTT6=
EXTT7=
EXTT8=
EXTT9=
PLAYORDER=
